{
	"asset":{
		"generator":"Khronos glTF Blender I/O v4.1.63",
		"version":"2.0"
	},
	"scene":0,
	"scenes":[
		{
			"name":"Scene",
			"nodes":[
				0,
				1,
				2,
				3
			]
		}
	],
	"nodes":[
		{
			"mesh":0,
			"name":"Sushi",
			"scale":[
				0.49645376205444336,
				0.49645376205444336,
				0.49645376205444336
			],
			"translation":[
				-1.0992158651351929,
				4.75399112701416,
				4.854869365692139
			]
		},
		{
			"mesh":1,
			"name":"Plate",
			"translation":[
				-2.0649149417877197,
				0.48860931396484375,
				1.3299959897994995
			]
		},
		{
			"mesh":2,
			"name":"Cube",
			"scale":[
				0.958792507648468,
				0.958792507648468,
				1.2523080110549927
			],
			"translation":[
				-0.2937469482421875,
				4.4116668701171875,
				1.4109892845153809
			]
		},
		{
			"mesh":3,
			"name":"Cube.001",
			"scale":[
				0.958792507648468,
				0.958792507648468,
				1.269613265991211
			],
			"translation":[
				-0.2937469482421875,
				4.4116668701171875,
				1.1007061004638672
			]
		}
	],
	"materials":[
		{
			"doubleSided":true,
			"name":"Material.001",
			"pbrMetallicRoughness":{
				"baseColorFactor":[
					0.013996323570609093,
					0.06827463954687119,
					0.028578687459230423,
					1
				],
				"metallicFactor":0,
				"roughnessFactor":0.5
			}
		},
		{
			"doubleSided":true,
			"name":"Material.002",
			"pbrMetallicRoughness":{
				"baseColorFactor":[
					0.024196336045861244,
					0,
					0.8018652200698853,
					1
				],
				"metallicFactor":0,
				"roughnessFactor":0.5
			}
		},
		{
			"doubleSided":true,
			"name":"Material.003",
			"pbrMetallicRoughness":{
				"baseColorFactor":[
					0.800000011920929,
					0.800000011920929,
					0.800000011920929,
					1
				],
				"metallicFactor":0,
				"roughnessFactor":0.5
			}
		},
		{
			"doubleSided":true,
			"name":"Material.004",
			"pbrMetallicRoughness":{
				"baseColorFactor":[
					0.007880204357206821,
					0.007880204357206821,
					0.007880204357206821,
					1
				],
				"metallicFactor":0,
				"roughnessFactor":0.5
			}
		}
	],
	"meshes":[
		{
			"name":"Cube",
			"primitives":[
				{
					"attributes":{
						"POSITION":0,
						"NORMAL":1,
						"TEXCOORD_0":2
					},
					"indices":3,
					"material":0
				},
				{
					"attributes":{
						"POSITION":4,
						"NORMAL":5,
						"TEXCOORD_0":6
					},
					"indices":7,
					"material":1
				},
				{
					"attributes":{
						"POSITION":8,
						"NORMAL":9,
						"TEXCOORD_0":10
					},
					"indices":11,
					"material":2
				}
			]
		},
		{
			"name":"Plane",
			"primitives":[
				{
					"attributes":{
						"POSITION":12,
						"NORMAL":13,
						"TEXCOORD_0":14
					},
					"indices":15,
					"material":3
				}
			]
		},
		{
			"name":"Cube.002",
			"primitives":[
				{
					"attributes":{
						"POSITION":16,
						"NORMAL":17,
						"TEXCOORD_0":18
					},
					"indices":19
				}
			]
		},
		{
			"name":"Cube.003",
			"primitives":[
				{
					"attributes":{
						"POSITION":20,
						"NORMAL":21,
						"TEXCOORD_0":22
					},
					"indices":19
				}
			]
		}
	],
	"accessors":[
		{
			"bufferView":0,
			"componentType":5126,
			"count":359,
			"max":[
				1.5533335208892822,
				0.7707388401031494,
				1.5533335208892822
			],
			"min":[
				-1.5533335208892822,
				-0.6650111675262451,
				-1.5533335208892822
			],
			"type":"VEC3"
		},
		{
			"bufferView":1,
			"componentType":5126,
			"count":359,
			"type":"VEC3"
		},
		{
			"bufferView":2,
			"componentType":5126,
			"count":359,
			"type":"VEC2"
		},
		{
			"bufferView":3,
			"componentType":5123,
			"count":1080,
			"type":"SCALAR"
		},
		{
			"bufferView":4,
			"componentType":5126,
			"count":15,
			"max":[
				0.5,
				0.5085272789001465,
				0.5
			],
			"min":[
				-0.5,
				0.503206729888916,
				-0.5
			],
			"type":"VEC3"
		},
		{
			"bufferView":5,
			"componentType":5126,
			"count":15,
			"type":"VEC3"
		},
		{
			"bufferView":6,
			"componentType":5126,
			"count":15,
			"type":"VEC2"
		},
		{
			"bufferView":7,
			"componentType":5123,
			"count":24,
			"type":"SCALAR"
		},
		{
			"bufferView":8,
			"componentType":5126,
			"count":24,
			"max":[
				1,
				0.6650111675262451,
				1
			],
			"min":[
				-1,
				0.6650111675262451,
				-1
			],
			"type":"VEC3"
		},
		{
			"bufferView":9,
			"componentType":5126,
			"count":24,
			"type":"VEC3"
		},
		{
			"bufferView":10,
			"componentType":5126,
			"count":24,
			"type":"VEC2"
		},
		{
			"bufferView":11,
			"componentType":5123,
			"count":72,
			"type":"SCALAR"
		},
		{
			"bufferView":12,
			"componentType":5126,
			"count":48,
			"max":[
				6.742556571960449,
				4.409687042236328,
				6.677830219268799
			],
			"min":[
				-1.2574434280395508,
				3.7982234954833984,
				-1.3221697807312012
			],
			"type":"VEC3"
		},
		{
			"bufferView":13,
			"componentType":5126,
			"count":48,
			"type":"VEC3"
		},
		{
			"bufferView":14,
			"componentType":5126,
			"count":48,
			"type":"VEC2"
		},
		{
			"bufferView":15,
			"componentType":5123,
			"count":84,
			"type":"SCALAR"
		},
		{
			"bufferView":16,
			"componentType":5126,
			"count":24,
			"max":[
				4.156651496887207,
				0.626192033290863,
				-0.5186956524848938
			],
			"min":[
				-1.7769429683685303,
				0.3748689293861389,
				-0.6207703351974487
			],
			"type":"VEC3"
		},
		{
			"bufferView":17,
			"componentType":5126,
			"count":24,
			"type":"VEC3"
		},
		{
			"bufferView":18,
			"componentType":5126,
			"count":24,
			"type":"VEC2"
		},
		{
			"bufferView":19,
			"componentType":5123,
			"count":36,
			"type":"SCALAR"
		},
		{
			"bufferView":20,
			"componentType":5126,
			"count":24,
			"max":[
				4.156651496887207,
				0.626192033290863,
				-0.5186956524848938
			],
			"min":[
				-1.7769429683685303,
				0.3748689293861389,
				-0.6207703351974487
			],
			"type":"VEC3"
		},
		{
			"bufferView":21,
			"componentType":5126,
			"count":24,
			"type":"VEC3"
		},
		{
			"bufferView":22,
			"componentType":5126,
			"count":24,
			"type":"VEC2"
		}
	],
	"bufferViews":[
		{
			"buffer":0,
			"byteLength":4308,
			"byteOffset":0,
			"target":34962
		},
		{
			"buffer":0,
			"byteLength":4308,
			"byteOffset":4308,
			"target":34962
		},
		{
			"buffer":0,
			"byteLength":2872,
			"byteOffset":8616,
			"target":34962
		},
		{
			"buffer":0,
			"byteLength":2160,
			"byteOffset":11488,
			"target":34963
		},
		{
			"buffer":0,
			"byteLength":180,
			"byteOffset":13648,
			"target":34962
		},
		{
			"buffer":0,
			"byteLength":180,
			"byteOffset":13828,
			"target":34962
		},
		{
			"buffer":0,
			"byteLength":120,
			"byteOffset":14008,
			"target":34962
		},
		{
			"buffer":0,
			"byteLength":48,
			"byteOffset":14128,
			"target":34963
		},
		{
			"buffer":0,
			"byteLength":288,
			"byteOffset":14176,
			"target":34962
		},
		{
			"buffer":0,
			"byteLength":288,
			"byteOffset":14464,
			"target":34962
		},
		{
			"buffer":0,
			"byteLength":192,
			"byteOffset":14752,
			"target":34962
		},
		{
			"buffer":0,
			"byteLength":144,
			"byteOffset":14944,
			"target":34963
		},
		{
			"buffer":0,
			"byteLength":576,
			"byteOffset":15088,
			"target":34962
		},
		{
			"buffer":0,
			"byteLength":576,
			"byteOffset":15664,
			"target":34962
		},
		{
			"buffer":0,
			"byteLength":384,
			"byteOffset":16240,
			"target":34962
		},
		{
			"buffer":0,
			"byteLength":168,
			"byteOffset":16624,
			"target":34963
		},
		{
			"buffer":0,
			"byteLength":288,
			"byteOffset":16792,
			"target":34962
		},
		{
			"buffer":0,
			"byteLength":288,
			"byteOffset":17080,
			"target":34962
		},
		{
			"buffer":0,
			"byteLength":192,
			"byteOffset":17368,
			"target":34962
		},
		{
			"buffer":0,
			"byteLength":72,
			"byteOffset":17560,
			"target":34963
		},
		{
			"buffer":0,
			"byteLength":288,
			"byteOffset":17632,
			"target":34962
		},
		{
			"buffer":0,
			"byteLength":288,
			"byteOffset":17920,
			"target":34962
		},
		{
			"buffer":0,
			"byteLength":192,
			"byteOffset":18208,
			"target":34962
		}
	],
	"buffers":[
		{
			"byteLength":18400,
			"uri":"sushi.bin"
		}
	]
}
